<svg width="20" height="14" viewBox="0 0 20 14" fill="none" xmlns="http://www.w3.org/2000/svg">
<path d="M0.122067 7.29461L6.37207 13.5446C6.53484 13.7074 6.79851 13.7074 6.96125 13.5446C7.12402 13.3818 7.12402 13.1182 6.96125 12.9554L1.4225 7.41668L19.5833 7.41668C19.8136 7.41668 20 7.23031 20 7C20 6.76969 19.8136 6.58332 19.5833 6.58332L1.4225 6.58332L6.96125 1.04461C7.12402 0.881835 7.12402 0.618164 6.96125 0.45543C6.87988 0.374062 6.77324 0.33336 6.66664 0.33336C6.56004 0.333359 6.45344 0.374062 6.37203 0.45543L0.122027 6.70543C-0.040706 6.86816 -0.0407061 7.13183 0.122067 7.29461Z" fill="black"/>
</svg>
