<svg width="24" height="24" viewBox="0 0 24 24" fill="none" xmlns="http://www.w3.org/2000/svg">
<g opacity="0.5" clip-path="url(#clip0)">
<path d="M14.9998 13.0005C14.4469 13.0005 13.9999 13.4485 13.9999 14.0004V18.0005C13.9999 18.5515 13.5519 19.0004 12.9998 19.0004H9.99983V4.00057C9.99983 3.14658 9.45583 2.38358 8.63791 2.09959L8.34183 2.00053H12.9998C13.5519 2.00053 13.9999 2.4495 13.9999 3.00064V6.00061C13.9999 6.55249 14.4469 7.00054 14.9998 7.00054C15.5528 7.00054 15.9998 6.55249 15.9998 6.00061V3.00064C15.9998 1.34667 14.6538 0.000671387 12.9998 0.000671387H2.24998C2.21189 0.000671387 2.18003 0.0177001 2.14304 0.0226438C2.09489 0.0186156 2.04893 0.000671387 2.00004 0.000671387C0.897024 0.000671387 0 0.897513 0 2.00053V20.0004C0 20.8543 0.544001 21.6173 1.36192 21.9013L7.37999 23.9074C7.58397 23.9704 7.78684 24.0004 7.99998 24.0004C9.10299 24.0004 9.99983 23.1034 9.99983 22.0004V21.0005H12.9998C14.6538 21.0005 15.9998 19.6545 15.9998 18.0005V14.0004C15.9998 13.4485 15.5528 13.0005 14.9998 13.0005Z" fill="#8F9EA2"/>
<path d="M23.707 9.29317L19.7069 5.29327C19.4211 5.00726 18.991 4.9212 18.6171 5.07611C18.2441 5.2312 18 5.59612 18 6.00023V9.0002H14.0001C13.4481 9.0002 13 9.44807 13 10.0001C13 10.5522 13.4481 11.0001 14.0001 11.0001H18V14C18 14.4041 18.2441 14.7691 18.6171 14.9241C18.991 15.0791 19.4211 14.993 19.7069 14.7072L23.707 10.7071C24.0979 10.3162 24.0979 9.68409 23.707 9.29317Z" fill="#8F9EA2"/>
</g>
<defs>
<clipPath id="clip0">
<rect width="24" height="24" fill="white"/>
</clipPath>
</defs>
</svg>
